<svg xmlns="http://www.w3.org/2000/svg" xmlns:xlink="http://www.w3.org/1999/xlink" id="Layer_1" x="0px" y="0px" viewBox="0 0 86 19" style="enable-background:new 0 0 86 19;" xml:space="preserve"><style type="text/css">	.st0{fill:#FFC621;}</style><path class="st0" d="M4.7,17.1L6,11.6L1.8,7.9l5.6-0.5l2.2-5.1l2.2,5.1l5.6,0.5L13,11.6l1.3,5.4l-4.8-2.9L4.7,17.1z"></path><path class="st0" d="M21.5,17.1l1.3-5.4l-4.2-3.7l5.6-0.5l2.2-5.1l2.2,5.1L34,7.9l-4.2,3.7l1.3,5.4l-4.8-2.9L21.5,17.1z"></path><path class="st0" d="M38.2,17.1l1.3-5.4l-4.2-3.7l5.6-0.5L43,2.3l2.2,5.1l5.6,0.5l-4.2,3.7l1.3,5.4L43,14.2L38.2,17.1z"></path><path class="st0" d="M55,17.1l1.3-5.4L52,7.9l5.6-0.5l2.2-5.1l2.2,5.1l5.6,0.5l-4.2,3.7l1.3,5.4l-4.8-2.9L55,17.1z"></path><path class="st0" d="M72,17.1l1.3-5.4L69,7.9l5.6-0.5l2.2-5.1l2.2,5.1l5.6,0.5l-4.2,3.7l1.3,5.4l-4.8-2.9L72,17.1z"></path></svg>